# xmcd
#
# Track frame offsets:
# 150
# 11774
# 25359
# 37822
# 52282
# 64339
# 76845
# 89750
# 105933
# 118077
#
# Disc length: 1737 seconds
#
#
# Revision: 0
# Processed by: cddbd v1.5.2PL0 Copyright (c) Steve Scherf et al.
# Submitted via: FreeRIP 2.944 
#
DISCID=8006c70a
DTITLE=Merle Haggard  - Okie From Muskogee
DYEAR=1900
DGENRE=Country
TTITLE0=Carolyn
TTITLE1=Holding Things Together
TTITLE2=I'm Always On a Mountain When I Fall
TTITLE3=I'm a Lonesome Fugitive
TTITLE4=I Take A Lot of Pride In What I Am
TTITLE5=It's Been a Great Afternoon
TTITLE6=Misery and Gin
TTITLE7=Ramblin' Fever
TTITLE8=Workin' Man's Blues
TTITLE9=Okie From Muskogee
EXTD=
EXTT0=
EXTT1=
EXTT2=
EXTT3=
EXTT4=
EXTT5=
EXTT6=
EXTT7=
EXTT8=
EXTT9=
PLAYORDER=
